<mxfile host="app.diagrams.net" agent="Mozilla/5.0 (Windows NT 10.0; Win64; x64) AppleWebKit/537.36 (KHTML, like Gecko) Chrome/140.0.0.0 Safari/537.36" version="28.2.5">
  <diagram name="Страница — 1" id="O0WR-NLI_ArbvPWHkAYJ">
    <mxGraphModel dx="983" dy="936" grid="0" gridSize="10" guides="1" tooltips="1" connect="1" arrows="1" fold="1" page="0" pageScale="1" pageWidth="827" pageHeight="1169" math="0" shadow="0">
      <root>
        <mxCell id="0" />
        <mxCell id="1" parent="0" />
        <mxCell id="WDsnjakFg3V-6hZ-VHmD-6" value="Class1" style="swimlane;fontStyle=1;align=center;verticalAlign=top;childLayout=stackLayout;horizontal=1;startSize=26;horizontalStack=0;resizeParent=1;resizeParentMax=0;resizeLast=0;collapsible=1;marginBottom=0;whiteSpace=wrap;html=1;" vertex="1" parent="1">
          <mxGeometry x="55" y="37" width="190" height="107" as="geometry" />
        </mxCell>
        <mxCell id="WDsnjakFg3V-6hZ-VHmD-45" value="- Class3 cl3" style="text;strokeColor=none;fillColor=none;align=left;verticalAlign=top;spacingLeft=4;spacingRight=4;overflow=hidden;rotatable=0;points=[[0,0.5],[1,0.5]];portConstraint=eastwest;whiteSpace=wrap;html=1;" vertex="1" parent="WDsnjakFg3V-6hZ-VHmD-6">
          <mxGeometry y="26" width="190" height="24" as="geometry" />
        </mxCell>
        <mxCell id="WDsnjakFg3V-6hZ-VHmD-8" value="" style="line;strokeWidth=1;fillColor=none;align=left;verticalAlign=middle;spacingTop=-1;spacingLeft=3;spacingRight=3;rotatable=0;labelPosition=right;points=[];portConstraint=eastwest;strokeColor=inherit;" vertex="1" parent="WDsnjakFg3V-6hZ-VHmD-6">
          <mxGeometry y="50" width="190" height="8" as="geometry" />
        </mxCell>
        <mxCell id="WDsnjakFg3V-6hZ-VHmD-9" value="+ meth1():&lt;div&gt;+ meth3():&lt;/div&gt;" style="text;strokeColor=none;fillColor=none;align=left;verticalAlign=top;spacingLeft=4;spacingRight=4;overflow=hidden;rotatable=0;points=[[0,0.5],[1,0.5]];portConstraint=eastwest;whiteSpace=wrap;html=1;" vertex="1" parent="WDsnjakFg3V-6hZ-VHmD-6">
          <mxGeometry y="58" width="190" height="49" as="geometry" />
        </mxCell>
        <mxCell id="WDsnjakFg3V-6hZ-VHmD-18" value="&lt;p style=&quot;margin:0px;margin-top:4px;text-align:center;&quot;&gt;&lt;i&gt;&amp;lt;&amp;lt;Interface&amp;gt;&amp;gt;&lt;/i&gt;&lt;br&gt;&lt;b&gt;Interface1&lt;/b&gt;&lt;/p&gt;&lt;hr size=&quot;1&quot; style=&quot;border-style:solid;&quot;&gt;&lt;p style=&quot;margin:0px;margin-left:4px;&quot;&gt;&lt;br&gt;&lt;/p&gt;&lt;hr size=&quot;1&quot; style=&quot;border-style:solid;&quot;&gt;&lt;p style=&quot;margin:0px;margin-left:4px;&quot;&gt;+ meth1():&lt;br&gt;&lt;/p&gt;" style="verticalAlign=top;align=left;overflow=fill;html=1;whiteSpace=wrap;" vertex="1" parent="1">
          <mxGeometry x="55" y="-142" width="190" height="100" as="geometry" />
        </mxCell>
        <mxCell id="WDsnjakFg3V-6hZ-VHmD-19" value="&lt;p style=&quot;margin:0px;margin-top:4px;text-align:center;&quot;&gt;&lt;i&gt;&amp;lt;&amp;lt;Interface&amp;gt;&amp;gt;&lt;/i&gt;&lt;br&gt;&lt;b&gt;Interface2&lt;/b&gt;&lt;/p&gt;&lt;hr size=&quot;1&quot; style=&quot;border-style:solid;&quot;&gt;&lt;p style=&quot;margin:0px;margin-left:4px;&quot;&gt;&lt;br&gt;&lt;/p&gt;&lt;hr size=&quot;1&quot; style=&quot;border-style:solid;&quot;&gt;&lt;p style=&quot;margin:0px;margin-left:4px;&quot;&gt;+ meth2():&lt;br&gt;&lt;/p&gt;" style="verticalAlign=top;align=left;overflow=fill;html=1;whiteSpace=wrap;" vertex="1" parent="1">
          <mxGeometry x="334" y="-142" width="190" height="100" as="geometry" />
        </mxCell>
        <mxCell id="WDsnjakFg3V-6hZ-VHmD-20" value="&lt;p style=&quot;margin:0px;margin-top:4px;text-align:center;&quot;&gt;&lt;i&gt;&amp;lt;&amp;lt;Interface&amp;gt;&amp;gt;&lt;/i&gt;&lt;br&gt;&lt;b&gt;Interface3&lt;/b&gt;&lt;/p&gt;&lt;hr size=&quot;1&quot; style=&quot;border-style:solid;&quot;&gt;&lt;p style=&quot;margin:0px;margin-left:4px;&quot;&gt;&lt;br&gt;&lt;/p&gt;&lt;hr size=&quot;1&quot; style=&quot;border-style:solid;&quot;&gt;&lt;p style=&quot;margin:0px;margin-left:4px;&quot;&gt;+ meth3():&lt;br&gt;&lt;/p&gt;" style="verticalAlign=top;align=left;overflow=fill;html=1;whiteSpace=wrap;" vertex="1" parent="1">
          <mxGeometry x="563" y="-142" width="190" height="100" as="geometry" />
        </mxCell>
        <mxCell id="WDsnjakFg3V-6hZ-VHmD-21" value="Class2" style="swimlane;fontStyle=1;align=center;verticalAlign=top;childLayout=stackLayout;horizontal=1;startSize=26;horizontalStack=0;resizeParent=1;resizeParentMax=0;resizeLast=0;collapsible=1;marginBottom=0;whiteSpace=wrap;html=1;" vertex="1" parent="1">
          <mxGeometry x="334" y="39" width="190" height="112" as="geometry" />
        </mxCell>
        <mxCell id="WDsnjakFg3V-6hZ-VHmD-39" value="- Interface3 if3" style="text;strokeColor=none;fillColor=none;align=left;verticalAlign=top;spacingLeft=4;spacingRight=4;overflow=hidden;rotatable=0;points=[[0,0.5],[1,0.5]];portConstraint=eastwest;whiteSpace=wrap;html=1;" vertex="1" parent="WDsnjakFg3V-6hZ-VHmD-21">
          <mxGeometry y="26" width="190" height="24" as="geometry" />
        </mxCell>
        <mxCell id="WDsnjakFg3V-6hZ-VHmD-22" value="" style="line;strokeWidth=1;fillColor=none;align=left;verticalAlign=middle;spacingTop=-1;spacingLeft=3;spacingRight=3;rotatable=0;labelPosition=right;points=[];portConstraint=eastwest;strokeColor=inherit;" vertex="1" parent="WDsnjakFg3V-6hZ-VHmD-21">
          <mxGeometry y="50" width="190" height="8" as="geometry" />
        </mxCell>
        <mxCell id="WDsnjakFg3V-6hZ-VHmD-23" value="+ meth2():&lt;div&gt;+ meth1():&lt;/div&gt;&lt;div&gt;&lt;div&gt;+ meth3():&lt;/div&gt;&lt;div&gt;&lt;br&gt;&lt;/div&gt;&lt;/div&gt;" style="text;strokeColor=none;fillColor=none;align=left;verticalAlign=top;spacingLeft=4;spacingRight=4;overflow=hidden;rotatable=0;points=[[0,0.5],[1,0.5]];portConstraint=eastwest;whiteSpace=wrap;html=1;" vertex="1" parent="WDsnjakFg3V-6hZ-VHmD-21">
          <mxGeometry y="58" width="190" height="54" as="geometry" />
        </mxCell>
        <mxCell id="WDsnjakFg3V-6hZ-VHmD-24" value="Class3" style="swimlane;fontStyle=1;align=center;verticalAlign=top;childLayout=stackLayout;horizontal=1;startSize=26;horizontalStack=0;resizeParent=1;resizeParentMax=0;resizeLast=0;collapsible=1;marginBottom=0;whiteSpace=wrap;html=1;" vertex="1" parent="1">
          <mxGeometry x="563" y="39" width="190" height="82" as="geometry" />
        </mxCell>
        <mxCell id="WDsnjakFg3V-6hZ-VHmD-43" value="- Interface2 if2" style="text;strokeColor=none;fillColor=none;align=left;verticalAlign=top;spacingLeft=4;spacingRight=4;overflow=hidden;rotatable=0;points=[[0,0.5],[1,0.5]];portConstraint=eastwest;whiteSpace=wrap;html=1;" vertex="1" parent="WDsnjakFg3V-6hZ-VHmD-24">
          <mxGeometry y="26" width="190" height="24" as="geometry" />
        </mxCell>
        <mxCell id="WDsnjakFg3V-6hZ-VHmD-25" value="" style="line;strokeWidth=1;fillColor=none;align=left;verticalAlign=middle;spacingTop=-1;spacingLeft=3;spacingRight=3;rotatable=0;labelPosition=right;points=[];portConstraint=eastwest;strokeColor=inherit;" vertex="1" parent="WDsnjakFg3V-6hZ-VHmD-24">
          <mxGeometry y="50" width="190" height="8" as="geometry" />
        </mxCell>
        <mxCell id="WDsnjakFg3V-6hZ-VHmD-26" value="+ meth3():" style="text;strokeColor=none;fillColor=none;align=left;verticalAlign=top;spacingLeft=4;spacingRight=4;overflow=hidden;rotatable=0;points=[[0,0.5],[1,0.5]];portConstraint=eastwest;whiteSpace=wrap;html=1;" vertex="1" parent="WDsnjakFg3V-6hZ-VHmD-24">
          <mxGeometry y="58" width="190" height="24" as="geometry" />
        </mxCell>
        <mxCell id="WDsnjakFg3V-6hZ-VHmD-29" value="" style="endArrow=block;dashed=1;endFill=0;endSize=12;html=1;rounded=0;exitX=0.5;exitY=0;exitDx=0;exitDy=0;entryX=0.5;entryY=1;entryDx=0;entryDy=0;" edge="1" parent="1" source="WDsnjakFg3V-6hZ-VHmD-6" target="WDsnjakFg3V-6hZ-VHmD-18">
          <mxGeometry width="160" relative="1" as="geometry">
            <mxPoint x="327" y="18" as="sourcePoint" />
            <mxPoint x="487" y="18" as="targetPoint" />
          </mxGeometry>
        </mxCell>
        <mxCell id="WDsnjakFg3V-6hZ-VHmD-30" value="" style="endArrow=block;dashed=1;endFill=0;endSize=12;html=1;rounded=0;entryX=0.5;entryY=1;entryDx=0;entryDy=0;" edge="1" parent="1" source="WDsnjakFg3V-6hZ-VHmD-21" target="WDsnjakFg3V-6hZ-VHmD-19">
          <mxGeometry width="160" relative="1" as="geometry">
            <mxPoint x="428.65999999999997" y="39" as="sourcePoint" />
            <mxPoint x="438" y="-37" as="targetPoint" />
          </mxGeometry>
        </mxCell>
        <mxCell id="WDsnjakFg3V-6hZ-VHmD-31" value="" style="endArrow=block;dashed=1;endFill=0;endSize=12;html=1;rounded=0;exitX=0.5;exitY=0;exitDx=0;exitDy=0;entryX=0.5;entryY=1;entryDx=0;entryDy=0;" edge="1" parent="1" source="WDsnjakFg3V-6hZ-VHmD-24" target="WDsnjakFg3V-6hZ-VHmD-20">
          <mxGeometry width="160" relative="1" as="geometry">
            <mxPoint x="657.66" y="39" as="sourcePoint" />
            <mxPoint x="656" y="-44" as="targetPoint" />
          </mxGeometry>
        </mxCell>
        <mxCell id="WDsnjakFg3V-6hZ-VHmD-33" value="Extends" style="endArrow=block;endSize=16;endFill=0;html=1;rounded=0;exitX=0.5;exitY=0;exitDx=0;exitDy=0;entryX=0.5;entryY=0;entryDx=0;entryDy=0;" edge="1" parent="1" source="WDsnjakFg3V-6hZ-VHmD-18" target="WDsnjakFg3V-6hZ-VHmD-20">
          <mxGeometry width="160" relative="1" as="geometry">
            <mxPoint x="304" y="-212" as="sourcePoint" />
            <mxPoint x="607" y="-164" as="targetPoint" />
            <Array as="points">
              <mxPoint x="150" y="-200" />
              <mxPoint x="658" y="-200" />
            </Array>
          </mxGeometry>
        </mxCell>
        <mxCell id="WDsnjakFg3V-6hZ-VHmD-34" value="Extends" style="endArrow=block;endSize=16;endFill=0;html=1;rounded=0;exitX=0;exitY=0.5;exitDx=0;exitDy=0;entryX=1;entryY=0.5;entryDx=0;entryDy=0;" edge="1" parent="1" source="WDsnjakFg3V-6hZ-VHmD-19" target="WDsnjakFg3V-6hZ-VHmD-18">
          <mxGeometry width="160" relative="1" as="geometry">
            <mxPoint x="327" y="-120" as="sourcePoint" />
            <mxPoint x="487" y="-120" as="targetPoint" />
          </mxGeometry>
        </mxCell>
        <mxCell id="WDsnjakFg3V-6hZ-VHmD-35" value="Extends" style="endArrow=block;endSize=16;endFill=0;html=1;rounded=0;entryX=0.5;entryY=1;entryDx=0;entryDy=0;exitX=0.5;exitY=1;exitDx=0;exitDy=0;" edge="1" parent="1" source="WDsnjakFg3V-6hZ-VHmD-6" target="WDsnjakFg3V-6hZ-VHmD-24">
          <mxGeometry width="160" relative="1" as="geometry">
            <mxPoint x="138" y="149" as="sourcePoint" />
            <mxPoint x="494" y="177" as="targetPoint" />
            <Array as="points">
              <mxPoint x="150" y="180" />
              <mxPoint x="656" y="180" />
            </Array>
          </mxGeometry>
        </mxCell>
        <mxCell id="WDsnjakFg3V-6hZ-VHmD-36" value="" style="endArrow=open;html=1;endSize=12;startArrow=diamondThin;startSize=14;startFill=0;edgeStyle=orthogonalEdgeStyle;align=left;verticalAlign=bottom;rounded=0;exitX=0.75;exitY=0;exitDx=0;exitDy=0;entryX=0.175;entryY=0.998;entryDx=0;entryDy=0;entryPerimeter=0;" edge="1" parent="1" source="WDsnjakFg3V-6hZ-VHmD-21" target="WDsnjakFg3V-6hZ-VHmD-20">
          <mxGeometry x="-0.9005" y="-9" relative="1" as="geometry">
            <mxPoint x="327" as="sourcePoint" />
            <mxPoint x="487" as="targetPoint" />
            <Array as="points">
              <mxPoint x="477" y="-15" />
              <mxPoint x="596" y="-15" />
            </Array>
            <mxPoint as="offset" />
          </mxGeometry>
        </mxCell>
        <mxCell id="WDsnjakFg3V-6hZ-VHmD-40" value="" style="endArrow=open;html=1;endSize=12;startArrow=diamondThin;startSize=14;startFill=0;edgeStyle=orthogonalEdgeStyle;align=left;verticalAlign=bottom;rounded=0;exitX=0.201;exitY=0.003;exitDx=0;exitDy=0;exitPerimeter=0;entryX=0.84;entryY=0.998;entryDx=0;entryDy=0;entryPerimeter=0;" edge="1" parent="1" source="WDsnjakFg3V-6hZ-VHmD-24" target="WDsnjakFg3V-6hZ-VHmD-19">
          <mxGeometry x="-0.8182" y="-11" relative="1" as="geometry">
            <mxPoint x="327" as="sourcePoint" />
            <mxPoint x="495" y="-37" as="targetPoint" />
            <Array as="points">
              <mxPoint x="601" y="1" />
              <mxPoint x="494" y="1" />
            </Array>
            <mxPoint as="offset" />
          </mxGeometry>
        </mxCell>
        <mxCell id="WDsnjakFg3V-6hZ-VHmD-44" value="" style="endArrow=open;html=1;endSize=12;startArrow=diamondThin;startSize=14;startFill=0;edgeStyle=orthogonalEdgeStyle;align=left;verticalAlign=bottom;rounded=0;exitX=0.824;exitY=1.039;exitDx=0;exitDy=0;exitPerimeter=0;entryX=0.204;entryY=1.068;entryDx=0;entryDy=0;entryPerimeter=0;" edge="1" parent="1" source="WDsnjakFg3V-6hZ-VHmD-9" target="WDsnjakFg3V-6hZ-VHmD-26">
          <mxGeometry x="-1" y="3" relative="1" as="geometry">
            <mxPoint x="327" as="sourcePoint" />
            <mxPoint x="487" as="targetPoint" />
            <Array as="points">
              <mxPoint x="212" y="164" />
              <mxPoint x="602" y="164" />
            </Array>
          </mxGeometry>
        </mxCell>
      </root>
    </mxGraphModel>
  </diagram>
</mxfile>
